<svg xmlns="http://www.w3.org/2000/svg" width="19.951" height="22.802" viewBox="0 0 19.951 22.802">
    <path id="bell" d="M10.975,22.8a2.85,2.85,0,0,0,2.85-2.85h-5.7a2.85,2.85,0,0,0,2.85,2.85Zm0-20.068L9.84,2.963A5.7,5.7,0,0,0,5.275,8.551a30.926,30.926,0,0,1-.654,5.333A18.434,18.434,0,0,1,3.676,17.1h14.6a18.522,18.522,0,0,1-.945-3.218,30.926,30.926,0,0,1-.654-5.333,5.7,5.7,0,0,0-4.564-5.586l-1.136-.232ZM19.839,17.1a3.626,3.626,0,0,0,1.112,1.425H1A3.626,3.626,0,0,0,2.112,17.1C3.394,14.536,3.85,9.8,3.85,8.551A7.128,7.128,0,0,1,9.558,1.567a1.425,1.425,0,1,1,2.836,0A7.128,7.128,0,0,1,18.1,8.551C18.1,9.8,18.557,14.536,19.839,17.1Z" transform="translate(-1 0.001)" fill="#676767"/>
  </svg>
  